<svg xmlns="http://www.w3.org/2000/svg" viewBox="0 0 480.31 318.55" fill="#ce2029"><path d="M331.18,469.7l1.13-129L424.06,478q46.59-68.65,93.2-137.3l13.53,111L424.5,591.53,331.18,469.7V659.28H259.85v-190Z" transform="translate(-259.85 -340.72)"/><path d="M517.26,659.28V340.72H623.05q39,0,66.85,27.6t27.82,67.07q0,31.86-22.88,54.74a84.2,84.2,0,0,1,33,30.51q12.33,19.74,12.33,44.86,0,39.5-27.81,66.63t-69.1,27.15Zm0-189.79c59.73.43,89,.1,97.72,0a36.19,36.19,0,0,0,17.18-4.11,32.08,32.08,0,0,0,6.6-4.86,29.7,29.7,0,0,0,9.42-22.44,31.15,31.15,0,0,0-9.42-22.88q-9.42-9.42-23.78-9.42c-21.17.13-28.33.25-49.49.38Zm0,124.28H637.41q14.36,0,23.78-9.2a31.69,31.69,0,0,0-.22-45.31q-9.66-9.19-24-9.2c-28.38.14-42.76.27-71.14.41Z" transform="translate(-259.85 -340.72)"/></svg>